<svg xmlns="http://www.w3.org/2000/svg" version="1.1" viewBox="-5.0 -10.0 110.0 135.0">
 <path d="m77.551 16.023c-7.5234-6.1094-17.113-9.7734-27.551-9.7734-7.3047 0-14.195 1.793-20.246 4.9648 1.5938 0.52344 3.707 1.0898 5.4258 1.0898 2.5078 0 7.8945-0.52344 11.48 0.17969 2.0586 0.40625 3.5859 1.2812 4.2578 2.4922 1.2734 2.2852 2.3047 5.9102 2.2461 8.2109-0.039062 1.6016-0.66406 2.7031-1.4727 3.1797-0.57812 0.34375-1.2617 0.53906-2.0938 0.73437-1.3398 0.31641-3.1875 0.73438-5.6875 3.0234-2.3047 2.1133-3.3477 3.5703-4.1914 4.6758-0.6875 0.90625-1.2812 1.6133-2.1445 2.2539-0.85156 0.62891-1.3359 1.4961-1.9609 2.1172-1.0234 1.0195-2.2266 1.6953-4.3945 1.2305-1.3164-0.28125-2.7734-0.60938-4.0508-0.59375-0.76953 0.007812-1.4883 0.082031-1.8477 0.70703-0.25 0.43359-0.23828 0.92969-0.042968 1.3711 0.39844 0.90234 1.4492 1.5781 2.8281 1.6602 1.3555 0.078125 2.2266 0.52344 2.8359 1.0898 0.60938 0.5625 0.96875 1.2773 1.1992 2.0391 0.125 0.40234 0.20703 0.82031 0.3125 1.1992 0.24219-0.15625 0.55859-0.35938 0.79688-0.52344 1.2852-0.88281 2.8828-1.707 5.0469-1.2578 3.5234 0.73438 4.582 1.6445 8.6172 4.6523 1.8828 1.4023 2.4297 2.5508 2.7891 3.4922 0.13281 0.35156 0.15625 0.67188 0.40234 0.9375 0.26953 0.28516 0.75391 0.45703 1.6406 0.69141 2.2461 0.58594 4.2148 0.69531 5.4375 1.0781 1.1641 0.36328 1.8711 0.98047 2.2031 1.7891 0.28906 0.70703 0.33594 1.7031-0.29688 3.1133-1.4062 3.1328-2.8789 5.0859-3.0703 7.1289-0.13281 1.4141-1.0195 2.3203-2.1914 3.0508-0.39844 0.24609-0.82812 0.47266-1.1992 0.74609-0.20703 0.15234-0.42188 0.3125-0.42188 0.62109 0 0.87891 0.23828 1.4844 0.33594 2 0.12891 0.66406 0.11719 1.2539-0.10156 1.8438-0.25391 0.69531-0.85156 1.4922-2.4062 2.3984-1.2188 0.71094-2.1797 1.1016-2.9141 1.4609-0.50781 0.24609-0.84375 0.40234-0.94141 1.0117-0.074219 0.46484 0.19531 1.1055 0.47656 1.8047 0.62109 1.5625 1.5312 3.2578 1.8672 4.2852 0.39062 1.1953 0.066406 2.0547-0.28516 2.4453-0.37891 0.42188-1.2656 1.0195-2.3867 1.2891-1.6367 0.39844-3.7109 0.17969-5.125-1.8555-1.1758-1.6875-2.8047-4.3477-3.5078-6.5898-0.37891-1.207-0.48828-2.3281-0.29297-3.2109 0.039063-0.17969 0.0625-0.40234 0.070313-0.49219l-0.52344-0.91016c-0.23047-0.50781-0.47266-1.2344-0.60156-2.4453-0.17969-1.6953 0.26172-3.5586 0.38672-5.2461 0.074219-0.98438 0.085938-1.9141-0.82031-2.5039-2.2578-1.4688-5.3516-4.7734-6.6484-7.6016-0.71875-1.5703-0.87891-3.0391-0.47266-4.1406 0.39844-1.0742 0.86328-2.1289 1.1406-2.7422-1.4727-0.86328-4.3984-2.5859-5.5898-4.0781-1.0273-1.2852-1.707-2.0703-3.5547-2.1211-3.3359-0.089844-5.8086-0.47656-6.457-3.9102-0.11719-0.625-0.75781-1.6094-1.5195-2.7266-1.2031-1.7656-2.7773-3.7422-3.9062-5.1055-1.4297 4.3203-2.1992 8.9297-2.1992 13.727 0 24.148 19.602 43.75 43.75 43.75 12.062 0 22.992-4.8945 30.91-12.801 0.0625-0.49219-0.023437-1.0586-0.16016-1.6758-0.32812-1.4492-1.0195-3.1016-1.7227-4.7266-0.77344-1.7812-1.5703-3.5391-2.0391-5.0352-0.38672-1.2305-0.55078-2.3203-0.44141-3.168 0.19531-1.5273 0.54688-2.3828 0.82031-3.0742 0.23828-0.59766 0.33984-0.98438-0.066406-2.1641-0.89844-2.625-2.457-5.6836-4.332-6.8086-0.54297-0.32812-0.99219-0.10156-1.543 0.14453-1.1484 0.51172-2.4961 1.293-4.4102 1.7461-1.3477 0.32031-2.3398 0.1875-3.1016-0.15625-0.83594-0.375-1.4453-1.0234-1.9023-1.8906-0.57031-1.0898-0.85156-2.6484-1.4648-4.0977-1.3242-3.1289-1.5-4.9297-1.4062-7.0156 0.070312-1.5391 0.71094-2.1445 1.6484-2.6523 0.53125-0.28516 1.3633-0.42969 2.1094-1.5703 1.25-1.9102 1.9688-2.1172 3.0703-2.2656 0.64844-0.085937 1.5781-0.054687 3.4297-0.75391 4.3906-1.6484 7.4062-0.70703 10.059-0.52344 2.5742 0.17969 4.3516 0.69531 8.168 1.7617 2.0898 0.58203 3.5234 0.050782 4.0859-0.23438-0.30469-0.97266-0.64844-1.9297-1.0195-2.8672-1.2461 0.054687-4.3203 0.082031-7.0586-0.78516-1.457-0.46094-2.1328-0.80469-2.6758-1.1016-0.63281-0.35156-1.0391-0.63281-2.9258-1.082-0.71094-0.17188-1.3984 0.011718-2.043 0.30469-0.87109 0.39453-1.6836 0.99219-2.4297 1.5508-1.3867 1.0352-2.6641 1.8867-3.6367 2.0117-0.71094 0.09375-1.2891-0.046875-1.7656-0.30469-0.6875-0.375-1.1797-1.0352-1.4102-1.875-0.23828-0.87891-0.16406-1.9883 0.19141-2.9023 0.27344-0.71875 0.71875-1.3086 1.2383-1.6797 1.207-0.85937 3.9648-3.4375 6.375-4.9883 0.15234-0.10156 0.16406-0.25781 0.16406-0.40234-0.003906-0.19922-0.03125-0.40234-0.070312-0.60156-0.13672-0.72656-0.34766-1.4492-0.39062-2.0273-0.058594-0.83594 0.15625-1.5117 0.58984-2.0117 0.32031-0.36328 0.76953-0.67187 1.457-0.80859 0.42969-0.085938 0.72266-0.41406 0.95312-0.72656 0.10938-0.14844 0.20703-0.30469 0.28906-0.46094zm-51.402-2.6953c-7.2109 4.7031-12.957 11.477-16.383 19.473 0.88281 1.0352 3.4727 4.1172 5.2656 6.7539 1.0859 1.5859 1.8594 3.0625 2.0273 3.9492 0.0625 0.33984 0.14844 0.59766 0.32031 0.77344 0.27344 0.28906 0.6875 0.33984 1.1484 0.39844 0.57422 0.074219 1.2148 0.085938 1.8984 0.10156 3.0625 0.085937 4.293 1.2109 5.9961 3.3359 1.2617 1.582 4.8438 3.3672 5.5391 3.8047 0.8125 0.51953 1.1367 1.2188 0.97656 2.25-0.11328 0.72656-0.83203 1.9453-1.5547 3.9062-0.085937 0.24219-0.019531 0.52734 0.070313 0.84375 0.15234 0.5625 0.44922 1.168 0.82422 1.7891 1.2461 2.0703 3.3516 4.2344 4.9531 5.2734 1.6836 1.0977 2.2578 2.6094 2.3086 4.3516 0.054688 1.7852-0.625 3.8828-0.42578 5.7695 0.16406 1.5156 0.57031 1.8242 0.78125 2.207 0.30469 0.55469 0.54297 1.1719 0.21484 2.6797-0.13672 0.625 0.14844 1.4492 0.50781 2.3398 0.71094 1.7539 1.8984 3.6445 2.7852 4.9141 0.46094 0.66797 1.1602 0.69141 1.6992 0.55859 0.054688-0.011719 0.11719-0.03125 0.17188-0.054687-0.027344-0.074219-0.054688-0.14844-0.085938-0.21484-0.375-0.86719-0.91406-1.9453-1.3555-2.9922-0.625-1.4883-0.99219-2.9531-0.83594-3.9297 0.27344-1.6797 0.95312-2.4336 2.1484-3.1133 0.74609-0.42188 1.8164-0.79688 3.2773-1.6445 0.33594-0.19531 0.59766-0.36719 0.79688-0.53906 0.058594-0.046875 0.12891-0.11719 0.16797-0.16406-0.019531-0.10938-0.066407-0.35938-0.10156-0.52344-0.14453-0.59766-0.30469-1.3047-0.30469-2.2148 0-1.6367 0.85156-2.6406 2-3.4141 0.42969-0.28906 0.90234-0.53906 1.3281-0.82031 0.21094-0.13672 0.47656-0.22266 0.5-0.48828 0.21484-2.3203 1.7422-4.5977 3.3398-8.1523 0.066406-0.14453 0.12109-0.31641 0.16016-0.44922-0.070313-0.027344-0.14453-0.054688-0.21094-0.070313-0.39844-0.10938-0.875-0.1875-1.4102-0.27344-1.0781-0.17188-2.3633-0.35938-3.7461-0.72266-2.4883-0.64844-3.2617-1.5078-3.7422-2.3789-0.14062-0.25781-0.25-0.52734-0.35547-0.8125-0.23828-0.64453-0.46094-1.4336-1.8516-2.4648-3.4609-2.5859-4.3203-3.4492-7.3398-4.082-0.89062-0.18359-1.5703 0.13281-2.1406 0.48438-0.60156 0.36719-1.1172 0.78125-1.5898 1.0586-1.0586 0.61719-2.0352 0.72656-2.9922 0.20312-0.82813-0.44922-1.3086-1.2539-1.5859-2.2734-0.10156-0.36719-0.17969-0.77344-0.30078-1.1641-0.066407-0.20312-0.125-0.41406-0.29297-0.56641-0.17188-0.15625-0.44531-0.21094-0.82031-0.23047-4.875-0.28906-7.2188-4.7305-5.4023-7.8828 0.78125-1.3516 2.0508-2.0469 3.6133-2.2578 1.7227-0.23047 3.8711 0.19141 5.7734 0.59766 0.91016 0.19531 1.3203-0.21094 1.7266-0.69141 0.58594-0.6875 1.1758-1.4727 2.0156-2.0977 0.60938-0.44922 1.0078-0.96875 1.4961-1.6094 0.92188-1.2109 2.0586-2.7969 4.582-5.1016 2.7031-2.4766 4.8086-3.207 6.418-3.6172 0.67578-0.17187 1.2422-0.23437 1.6953-0.43359 0.03125-0.24219 0.097656-0.86719 0.054688-1.3398-0.16406-1.8203-0.91797-4.2031-1.8047-5.7891-0.16406-0.28906-0.52344-0.4375-0.92969-0.58594-0.71094-0.26172-1.5977-0.41406-2.5547-0.50781-3.2891-0.3125-7.3672 0.082032-9.4258 0.082032-3.5078 0-8.4453-1.9766-9.0312-2.2188zm66.445 26.629c-1.2266 0.49609-3.2109 0.91406-5.832 0.1875-3.5156-0.98438-5.1484-1.4883-7.5195-1.6484-2.293-0.16016-4.9023-1.0977-8.6992 0.32422-1.8359 0.69141-2.9453 0.8125-3.7227 0.88672-0.23828 0.023438-0.42187 0.011719-0.58594 0.074219-0.21875 0.085938-0.32031 0.34375-0.61719 0.79688-0.85938 1.3086-1.7578 1.8945-2.5273 2.2852-0.22656 0.11719-0.53906 0.26953-0.70703 0.35156-0.070312 1.6484 0.10156 3.0859 1.1523 5.5664 0.48828 1.1484 0.75391 2.3594 1.1289 3.3516 0.14453 0.38281 0.25781 0.73438 0.53906 0.92188 0.24219 0.16406 0.58594 0.10156 1.0703-0.015626 2.0859-0.49219 3.4141-1.4531 4.6016-1.8594 1.2734-0.4375 2.4375-0.46094 3.7734 0.33984 2.3867 1.4336 4.582 5.1953 5.7266 8.5391 0.69922 2.0391 0.53906 2.9492 0.19922 3.9141-0.21875 0.63281-0.61719 1.2969-0.80469 2.7891-0.0625 0.48047 0.097657 1.0859 0.31641 1.7852 0.44141 1.3984 1.1953 3.0469 1.918 4.7188 0.67969 1.5625 1.3281 3.1484 1.7305 4.5898 6.2578-7.5664 10.02-17.273 10.02-27.852 0-3.457-0.39844-6.8203-1.1602-10.043zm-12.57-21.77c-0.046876 0.070312-0.10156 0.14844-0.15234 0.21484-0.55469 0.76172-1.3203 1.4453-2.2812 1.8008 0.085937 0.41406 0.20703 1.0117 0.27734 1.4375 0.26562 1.5859 0.035156 3.125-1.5586 4.1484-2.3672 1.5195-5.0625 4.0547-6.2422 4.8984-0.13281 0.09375-0.14453 0.30859-0.17969 0.50391-0.011719 0.078125-0.019531 0.17969-0.015625 0.27344 0.18359-0.10156 0.38281-0.25781 0.60547-0.41406 0.62891-0.4375 1.3203-0.99219 2.0586-1.5078 1.8594-1.2969 4.0117-2.2852 6.2578-1.75 2.0391 0.48438 2.7383 0.83984 3.3945 1.2031 0.51172 0.28516 0.98828 0.58594 2.4297 1.043 1.6289 0.51563 3.3984 0.64844 4.6562 0.66406-2.3203-4.7148-5.4688-8.9492-9.25-12.523z" fill-rule="evenodd"/>
</svg>