<svg viewBox="0 0 24 30" fill="none">
    <path d="M12 9C11.4477 9 11 8.55229 11 8C11 7.44772 11.4477 7 12 7C12.5523 7 13 7.44772 13 8C13 8.55229 12.5523 9 12 9Z" fill="black"/>
    <path d="M13 11C13 10.4477 12.5523 10 12 10C11.4477 10 11 10.4477 11 11V16C11 16.5523 11.4477 17 12 17C12.5523 17 13 16.5523 13 16V11Z" fill="black"/>
    <path fill-rule="evenodd" clip-rule="evenodd" d="M22 12C22 17.5228 17.5228 22 12 22C6.47715 22 2 17.5228 2 12C2 6.47715 6.47716 2 12 2C17.5229 2 22 6.47715 22 12ZM12 20C16.4183 20 20 16.4183 20 12C20 7.58172 16.4183 4 12 4C7.58173 4 4 7.58172 4 12C4 16.4183 7.58172 20 12 20Z" fill="black"/>
</svg>